<mxfile host="app.diagrams.net" modified="2024-02-26T06:09:48.444Z" agent="Mozilla/5.0 (Macintosh; Intel Mac OS X 10_15_7) AppleWebKit/537.36 (KHTML, like Gecko) Chrome/121.0.0.0 Safari/537.36" version="23.1.6" etag="PA8TH5s9qhCL07wYa8de" type="github">
  <diagram name="페이지-1" id="5x9ObGgsleuuil3O5105">
    <mxGraphModel>
      <root>
        <mxCell id="0" />
        <mxCell id="1" parent="0" />
      </root>
    </mxGraphModel>
  </diagram>
</mxfile>
